<?xml version="1.0" encoding="iso-8859-1"?>
<!-- Generator: Adobe Illustrator 21.0.0, SVG Export Plug-In . SVG Version: 6.00 Build 0)  -->
<svg xmlns="http://www.w3.org/2000/svg" xmlns:xlink="http://www.w3.org/1999/xlink" version="1.1" id="Capa_1" x="0px" y="0px" viewBox="0 0 512.001 512.001" style="enable-background:new 0 0 512.001 512.001;" xml:space="preserve" width="512" height="512">
<g>
	<g>
		<path d="M256.001,0c-140.95,0-256,115.04-256,256c0,44.49,13.15,89.6,38.1,130.9L0.861,491.99c-1.92,5.43-0.57,11.47,3.48,15.56    c2.86,2.9,6.72,4.45,10.66,4.45c1.63,0,3.27-0.26,4.86-0.81l106.16-36.34c40.8,24.66,84.49,37.15,129.98,37.15    c68.11,0,132.33-26.7,180.81-75.19c48.49-48.48,75.19-112.7,75.19-180.81C512.001,115.05,396.96,0,256.001,0z M256.001,482    c-41.99,0-82.37-12.21-120.03-36.29c-2.44-1.56-5.25-2.36-8.08-2.36c-1.63,0-3.28,0.27-4.86,0.81l-83.52,28.6l29.28-82.64    c1.54-4.36,0.99-9.19-1.5-13.09c-24.4-38.15-37.29-80.01-37.29-121.03c0-124.62,101.38-226,226-226s226,101.38,226,226    S380.621,482,256.001,482z"/>
	</g>
	<g>
		<path d="M412.69,317.42l-47.65-47.64c-6.01-6.02-14.01-9.33-22.51-9.33c-8.51,0-16.51,3.31-22.52,9.33l-11.91,11.91    c-3.54,3.53-8.23,5.47-13.22,5.47c-4.99,0-9.69-1.94-13.22-5.47l-47.65-47.65c-7.28-7.29-7.28-19.14,0-26.43l11.92-11.91    c6.01-6.02,9.32-14.02,9.32-22.52c0-8.51-3.31-16.51-9.32-22.52l-47.65-47.65c-12.42-12.41-32.62-12.41-45.04,0l-11.91,11.91    c-17.05,17.05-22.73,53.05-14.83,93.95c8.54,44.25,30.73,86.11,62.48,117.86c31.74,31.74,73.6,53.93,117.86,62.48    c29.72,5.74,72.69,6.41,93.94-14.84l11.91-11.91c6.02-6.01,9.33-14.01,9.33-22.52C422.021,331.44,418.71,323.44,412.69,317.42z     M391.48,341.25l-11.91,11.91c-8.14,8.14-33.79,13.02-67.05,6.59c-22.26-4.3-65.15-17.06-102.33-54.24    c-37.18-37.18-49.94-80.07-54.24-102.33c-2.06-10.67-2.96-20.55-2.96-29.32c0-18.59,4.03-32.19,9.55-37.72l11.92-11.91    c0.36-0.36,0.83-0.54,1.3-0.54s0.95,0.18,1.31,0.54l47.64,47.64c0.36,0.36,0.54,0.8,0.54,1.31s-0.18,0.94-0.54,1.3l-11.91,11.92    c-18.98,18.98-18.98,49.87,0,68.85l47.65,47.65c9.19,9.2,21.42,14.26,34.43,14.26c13,0,25.23-5.06,34.43-14.26l11.91-11.91    c0.72-0.72,1.89-0.72,2.61,0l47.65,47.65c0.36,0.36,0.54,0.8,0.54,1.3C392.021,340.45,391.841,340.89,391.48,341.25z"/>
	</g>
</g>















</svg>
